<?xml version="1.0" encoding="utf-8"?>
<!-- Generator: Adobe Illustrator 25.2.3, SVG Export Plug-In . SVG Version: 6.00 Build 0)  -->
<svg version="1.1" id="Layer_1" xmlns="http://www.w3.org/2000/svg" xmlns:xlink="http://www.w3.org/1999/xlink" x="0px" y="0px"
	 viewBox="0 0 253.45 47.85" style="enable-background:new 0 0 253.45 47.85;" xml:space="preserve">
<style type="text/css">
	.st0{fill:#00CF00;}
</style>
<g>
	<rect x="83.46" y="41.01" class="st0" width="24.94" height="6.1"/>
	<rect y="14.24" width="7.03" height="32.87"/>
	<path d="M74.35,41.15v5.96c-2.32,0.49-4.26,0.74-5.82,0.74c-3.84,0-6.82-0.96-8.94-2.88c-2.12-1.92-3.18-4.78-3.18-8.57V5.6h7.1
		v8.64h9.77v6.09H63.5V35.8c0,2.05,0.52,3.51,1.57,4.38c1.05,0.87,2.69,1.31,4.92,1.31C70.76,41.49,72.21,41.38,74.35,41.15z"/>
	<path d="M184.06,33.32V14.24h6.96v19.62c0,2.23,0.69,4.04,2.08,5.42c1.38,1.38,3.17,2.08,5.36,2.08c2.1,0,3.83-0.69,5.19-2.08
		c1.36-1.38,2.04-3.19,2.04-5.42V14.24h7.03v19.08c0,4.33-1.35,7.83-4.05,10.51c-2.7,2.68-6.1,4.02-10.21,4.02
		c-4.2,0-7.64-1.33-10.34-3.98C185.41,41.21,184.06,37.7,184.06,33.32z"/>
	<path d="M45.89,28.03v19.08h-6.96V27.5c0-2.23-0.69-4.04-2.08-5.42C35.47,20.69,33.69,20,31.5,20c-2.1,0-3.83,0.69-5.19,2.08
		c-1.36,1.38-2.04,3.19-2.04,5.42v19.62h-7.03V28.03c0-4.33,1.35-7.83,4.05-10.51c2.7-2.68,6.1-4.02,10.21-4.02
		c4.2,0,7.64,1.33,10.34,3.98C44.54,20.14,45.89,23.66,45.89,28.03z"/>
	<polygon points="162.52,47.11 178.04,14.24 170.54,14.24 160.97,36 151.32,14.24 143.83,14.24 159.41,47.11 	"/>
	<path d="M137.97,13.5h-3.87c-4.11,0-7.51,1.34-10.21,4.02c-2.7,2.68-4.05,6.18-4.05,10.51v19.08h7.03V27.5
		c0-2.23,0.68-4.04,2.04-5.42C130.27,20.69,132,20,134.1,20v0h0.01c0.02,0,0.04,0,0.05,0v0h3.8V13.5z"/>
	<path d="M111.8,15.07c0-4.28-1.45-7.87-4.35-10.75C104.55,1.44,100.93,0,96.61,0c-4.64-0.09-8.66,1.57-12.05,4.99
		c-3.39,3.41-5.04,7.49-4.95,12.22c0,4.86,1.7,8.94,5.09,12.22c3.39,3.28,7.59,4.92,12.59,4.92c5.04,0,9.42-1.76,13.12-5.29
		c-2.26-3.48-4.78-3.47-6.55-2.56c-0.08,0.04-0.16,0.09-0.23,0.13c-0.02,0.01-0.05,0.02-0.07,0.04l0,0
		c-1.91,0.97-3.93,1.46-6.07,1.46c-2.81,0-5.19-0.77-7.13-2.31c-1.94-1.54-3.14-3.65-3.58-6.33h24.5
		C111.62,17.83,111.8,16.36,111.8,15.07z M86.9,14c0.54-2.45,1.66-4.41,3.38-5.86c1.72-1.45,3.74-2.18,6.06-2.18
		c2.37,0,4.35,0.73,5.96,2.18c1.61,1.45,2.43,3.4,2.48,5.86H86.9z"/>
	
		<rect x="224.64" y="41.01" transform="matrix(-1 -4.491886e-11 4.491886e-11 -1 474.2315 88.1251)" class="st0" width="24.94" height="6.1"/>
	<path d="M248.49,4.99c-3.39-3.41-7.41-5.08-12.05-4.99c-4.33,0-7.94,1.44-10.85,4.32c-2.9,2.88-4.35,6.46-4.35,10.75
		c0,1.3,0.18,2.77,0.54,4.42h24.5c-0.45,2.68-1.64,4.79-3.58,6.33c-1.94,1.54-4.32,2.31-7.13,2.31c-2.13,0-4.15-0.49-6.07-1.46l0,0
		c-0.02-0.01-0.04-0.02-0.07-0.04c-0.08-0.04-0.16-0.09-0.24-0.13c-1.77-0.91-4.29-0.92-6.55,2.56c3.71,3.53,8.08,5.29,13.12,5.29
		c5,0,9.2-1.64,12.59-4.92c3.39-3.28,5.09-7.35,5.09-12.22C253.54,12.48,251.88,8.41,248.49,4.99z M228.27,14
		c0.05-2.45,0.87-4.41,2.48-5.86c1.61-1.45,3.59-2.18,5.96-2.18c2.32,0,4.34,0.73,6.06,2.18c1.72,1.45,2.85,3.4,3.38,5.86H228.27z"
		/>
</g>
</svg>
